# xmcd
#
# Track frame offsets: 
#        150
#        9647
#        20176
#        31512
#        44545
#        56995
#        67595
#        78394
#        89751
#        101678
#        112955
#        125229
#        135187
#        147387
#        157509
#        168659
#        179558
#        195135
#        208571
#        220565
#
# Disc length: 3097 seconds
#
# Revision: 0
# Processed by: cddbd v1.5.2PL0 Copyright (c) Steve Scherf et al.
# Submitted via: ExactAudioCopyFreeDBPlugin 1.0
#
DISCID=0e0c1714
DTITLE=Bill Haley and The Comets - Elvis and Friends CD 2
DYEAR=1900
DGENRE=Rock and Roll
TTITLE0=I´ll Be True
TTITLE1=Rock-a-beatin´Boogie
TTITLE2=Dim, Dim The Lights
TTITLE3=Thirteen Woman
TTITLE4=See You Later Alligator
TTITLE5=R-O-C-K
TTITLE6=Rit It Up
TTITLE7=Shake, Rattle And Roll
TTITLE8=Crazy Man
TTITLE9=Hot Dog Buddy Buddy
TTITLE10=Razzle Dazzle
TTITLE11=Rock Around The Clock
TTITLE12=Rudy´s Rock
TTITLE13=Birth Of The Boogie
TTITLE14=A.B.C. Boogie
TTITLE15=Blue Comet Blues
TTITLE16=When The Saints Go Rock
TTITLE17=Two Hound Dogs
TTITLE18=Goofin´Around
TTITLE19=Mambo Rock
EXTD=
EXTT0=
EXTT1=
EXTT2=
EXTT3=
EXTT4=
EXTT5=
EXTT6=
EXTT7=
EXTT8=
EXTT9=
EXTT10=
EXTT11=
EXTT12=
EXTT13=
EXTT14=
EXTT15=
EXTT16=
EXTT17=
EXTT18=
EXTT19=
PLAYORDER=
